<svg width="981" height="180" viewBox="0 0 981 180" fill="none" xmlns="http://www.w3.org/2000/svg">
<path d="M890.543 169.035C859.476 169.035 836.751 163.929 822.368 153.717C807.985 143.361 800.793 129.409 800.793 111.862V109.057H839.843V110.999C839.843 130.272 856.743 139.909 890.543 139.909C909.673 139.909 922.833 138.183 930.025 134.731C937.36 131.279 941.028 126.605 941.028 120.708C941.028 115.386 938.655 111.431 933.908 108.842C929.162 106.109 923.121 104.311 915.786 103.448C908.45 102.585 898.454 101.866 885.797 101.291C867.962 100.428 853.507 99.0612 842.432 97.1914C831.357 95.3216 821.792 91.3663 813.738 85.3254C805.827 79.2845 801.872 70.2232 801.872 58.1414C801.872 44.3337 808.704 33.2588 822.368 24.9166C836.032 16.5744 858.685 12.4033 890.328 12.4033C920.82 12.4033 943.185 17.4374 957.425 27.5055C971.808 37.5737 978.999 50.878 978.999 67.4185V69.1445H939.949V67.4185C939.949 59.7955 935.994 53.6108 928.083 48.8644C920.316 43.9741 907.731 41.529 890.328 41.529C871.774 41.529 858.901 43.255 851.709 46.7069C844.518 50.015 840.922 54.4018 840.922 59.8674C840.922 64.3262 843.151 67.7062 847.61 70.0075C852.069 72.3088 857.606 73.819 864.222 74.5381C870.982 75.2573 880.475 75.8326 892.701 76.2641C910.824 76.9832 925.71 78.2777 937.36 80.1475C949.011 81.8735 959.007 85.9007 967.349 92.2293C975.835 98.5578 980.078 108.051 980.078 120.708C980.078 135.378 973.102 147.101 959.151 155.874C945.199 164.648 922.33 169.035 890.543 169.035Z" fill="#434343"/>
<path d="M728.027 166.23H689.624V47.1384H627.489V15.208H790.162V47.1384H728.027V166.23Z" fill="#434343"/>
<path d="M555.793 166.23H517.391V47.1384H455.256V15.208H617.928V47.1384H555.793V166.23Z" fill="#434343"/>
<path d="M379.607 15.208C400.463 15.208 416.212 19.8825 426.856 29.2315C437.499 38.4366 442.821 51.1656 442.821 67.4185C442.821 83.6713 437.499 96.4723 426.856 105.821C416.212 115.17 400.463 119.845 379.607 119.845H320.924V166.23H282.522V15.208H379.607ZM378.097 88.9931C386.727 88.9931 393.271 87.0514 397.73 83.1679C402.189 79.2845 404.418 74.0347 404.418 67.4185C404.418 60.8023 402.189 55.6244 397.73 51.8848C393.271 48.0014 386.727 46.0597 378.097 46.0597H318.983V88.9931H378.097Z" fill="#434343"/>
<path d="M172.288 101.231C160.66 144.734 132.422 174.972 109.217 168.769C86.0114 162.567 76.626 122.272 88.2539 78.7693C99.8818 35.2662 128.12 5.02815 151.325 11.2307C174.53 17.4332 183.916 57.7276 172.288 101.231Z" fill="#434343"/>
<path fill-rule="evenodd" clip-rule="evenodd" d="M139.924 148.812C150.399 137.595 159.879 120.261 165.454 99.4041C171.029 78.5474 171.461 58.7948 167.98 43.8476C164.42 28.5653 157.349 20.1629 149.499 18.0644C141.648 15.966 131.328 19.72 120.618 31.1883C110.143 42.4051 100.662 59.7391 95.0876 80.5959C89.5129 101.453 89.0806 121.205 92.5621 136.152C96.1217 151.435 103.193 159.837 111.043 161.936C118.894 164.034 129.214 160.28 139.924 148.812ZM109.217 168.769C132.422 174.972 160.66 144.734 172.288 101.231C183.916 57.7276 174.53 17.4332 151.325 11.2307C128.12 5.02815 99.8818 35.2662 88.2539 78.7693C76.626 122.272 86.0114 162.567 109.217 168.769Z" fill="#434343"/>
<path d="M105.088 101.231C93.4603 144.734 65.2224 174.972 42.017 168.769C18.8117 162.567 9.4263 122.272 21.0542 78.7693C32.6821 35.2662 60.9201 5.02815 84.1254 11.2307C107.331 17.4332 116.716 57.7276 105.088 101.231Z" fill="#434343"/>
<path fill-rule="evenodd" clip-rule="evenodd" d="M72.7243 148.812C83.1991 137.595 92.6797 120.261 98.2545 99.4041C103.829 78.5474 104.262 58.7948 100.78 43.8476C97.2205 28.5653 90.1496 20.1629 82.2988 18.0644C74.448 15.966 64.1279 19.72 53.4181 31.1883C42.9433 42.4051 33.4627 59.7391 27.8879 80.5959C22.3132 101.453 21.8809 121.205 25.3624 136.152C28.9219 151.435 35.9928 159.837 43.8436 161.936C51.6944 164.034 62.0146 160.28 72.7243 148.812ZM42.017 168.769C65.2224 174.972 93.4603 144.734 105.088 101.231C116.716 57.7276 107.331 17.4332 84.1254 11.2307C60.9201 5.02815 32.6821 35.2662 21.0542 78.7693C9.4263 122.272 18.8117 162.567 42.017 168.769Z" fill="#434343"/>
<path d="M239.487 101.231C227.86 144.734 199.622 174.972 176.416 168.769C153.211 162.567 143.825 122.272 155.453 78.7693C167.081 35.2662 195.319 5.02815 218.525 11.2307C241.73 17.4332 251.115 57.7276 239.487 101.231Z" fill="#434343"/>
<path fill-rule="evenodd" clip-rule="evenodd" d="M207.123 148.812C217.598 137.595 227.079 120.261 232.654 99.4041C238.228 78.5474 238.661 58.7948 235.179 43.8476C231.62 28.5653 224.549 20.1629 216.698 18.0644C208.847 15.966 198.527 19.72 187.817 31.1883C177.342 42.4051 167.862 59.7391 162.287 80.5959C156.712 101.453 156.28 121.205 159.762 136.152C163.321 151.435 170.392 159.837 178.243 161.936C186.094 164.034 196.414 160.28 207.123 148.812ZM176.416 168.769C199.622 174.972 227.86 144.734 239.487 101.231C251.115 57.7276 241.73 17.4332 218.525 11.2307C195.319 5.02815 167.081 35.2662 155.453 78.7693C143.825 122.272 153.211 162.567 176.416 168.769Z" fill="#434343"/>
</svg>
